<svg xmlns="http://www.w3.org/2000/svg" width="294" height="83" viewBox="0 0 294 83" fill="none"><path fill="#020101" fill-rule="evenodd" d="M41.597 50.961c5.269 0 9.54-4.256 9.54-9.506s-4.271-9.507-9.54-9.507c-5.268 0-9.539 4.256-9.539 9.507 0 5.25 4.271 9.506 9.54 9.506Zm0-5.766a3.747 3.747 0 0 0 3.753-3.74c0-2.066-1.68-3.74-3.753-3.74a3.747 3.747 0 0 0-3.753 3.74c0 2.065 1.68 3.74 3.753 3.74Z" clip-rule="evenodd"/><path fill="#020101" fill-rule="evenodd" d="M41.597 82.91c22.974 0 41.598-18.56 41.598-41.455A41.163 41.163 0 0 0 76 18.145v24.556l-5.864 5.844 1.25 1.247-13.213 13.169-2.893-2.883.469-6.39 9.774-9.74 1.564 1.559 4.69-4.676V12.935C64.19 4.877 53.562 0 41.599 0 18.623 0 0 18.56 0 41.455c0 22.894 18.624 41.454 41.597 41.454ZM15.948 22.132l1.191.938c-9.36 12.499-7.124 29.06 1.466 38.174l-1.36 1.067-.043-.052C5.944 48.625 7.506 33.353 15.948 22.133Zm12.087 9.52-1.454-1.145c-4.359 6.372-5.42 16.148 1.345 23.42l1.397-1.096h-.002c-3.44-3.663-7.74-11.813-1.329-21.118l.043-.062Zm-7.958-6.268 1.384 1.09C12.71 39.23 16.586 50.59 22.753 57.896l.047.056-1.392 1.093c-7.079-8.54-10.198-20.786-1.33-33.66Zm-7.958-6.372 1.245 1.021c-9.455 12.546-10 30.93 1.18 44.174l.114.135-1.29 1.013C2.184 51.728 1.277 33.083 12.12 19.013Zm29.478 33.662c6.219 0 11.26-5.023 11.26-11.22 0-6.197-5.041-11.221-11.26-11.221-6.218 0-11.26 5.024-11.26 11.22 0 6.197 5.042 11.221 11.26 11.221Z" clip-rule="evenodd"/><path fill="#020101" d="M123.386 27.565c.535 0 .802.28.802.838 0 .286-.091.617-.274.993a63.7 63.7 0 0 0-.41.896l-10.615 26.124-12.862-28.636H110.7l6.216 14.57 4.359-10.87c.469-1.168.776-2.012.919-2.532.143-.52.3-.876.469-1.071.169-.208.411-.312.723-.312ZM131.519 31.13c-1.342 0-2.391-.299-3.147-.896-.756-.597-1.134-1.383-1.134-2.357 0-.818.417-1.52 1.251-2.104.886-.623 1.824-.935 2.815-.935.99 0 1.753.097 2.287.292.547.195 1.01.448 1.388.76.756.636 1.134 1.377 1.134 2.22 0 .845-.43 1.56-1.291 2.143-.86.585-1.961.877-3.303.877Zm-4.105 3.41h8.405v20.804h-8.405V34.54ZM155.896 36.663a1.928 1.928 0 0 0-1.056-.312c-.378 0-.769.09-1.173.273-.404.168-.827.409-1.27.72-.926.663-1.779 1.546-2.561 2.65v15.35h-8.406V34.54h8.406v3.331c2.228-2.454 4.75-3.681 7.565-3.681 4.6 0 6.9 2.22 6.9 6.662v14.493h-8.405V36.663ZM173.548 59.942c.795-.247 1.349-.565 1.661-.955.443-.52.978-1.454 1.603-2.805l.45-1.032-10.654-20.61h8.895l5.551 11.765 3.206-7.46c.586-1.364.971-2.403 1.153-3.117.183-.715.359-1.15.528-1.306a.96.96 0 0 1 .645-.233c.261 0 .463.078.606.233.143.156.215.312.215.468 0 .156-.019.325-.059.506a4.283 4.283 0 0 1-.195.702c-.091.285-.228.649-.411 1.09l-8.112 18.74c-.964 2.26-1.889 3.852-2.776 4.774-.755.818-1.524 1.227-2.306 1.227-.769 0-1.153-.273-1.153-.818 0-.533.384-.922 1.153-1.17ZM190.027 27.78h8.406v27.564h-8.406V27.78ZM212.078 55.715c-5.109 0-7.663-2.325-7.663-6.975l-.019-12.779-2.248.098c-.704 0-1.056-.267-1.056-.799s.378-.799 1.134-.799l1.876.078h.294v-3.02l8.385-3.74v6.76h2.62l1.857-.078c.769 0 1.153.273 1.153.819 0 .246-.111.441-.332.584-.209.13-.45.195-.723.195l-2.424-.098h-2.151v18.312c1.525-.026 2.796-.461 3.812-1.305a2.897 2.897 0 0 0 1.017-1.403c.208-.571.391-.935.547-1.09a.808.808 0 0 1 .587-.254c.221 0 .41.09.566.273a.881.881 0 0 1 .235.623c0 .234-.065.5-.196.799-.13.286-.325.59-.586.915a6.94 6.94 0 0 1-2.033 1.734c-1.394.766-2.945 1.15-4.652 1.15ZM240.227 50.61c.508 0 .763.234.763.702 0 .35-.229.766-.685 1.247-2.059 2.104-4.88 3.156-8.464 3.156-3.219 0-5.929-.968-8.132-2.903-2.28-2.013-3.42-4.558-3.42-7.636 0-3.143 1.029-5.728 3.088-7.754 2.176-2.155 5.069-3.233 8.679-3.233 2.893 0 5.324.876 7.292 2.63 2.124 1.883 3.186 4.357 3.186 7.421 0 .442-.013.91-.039 1.403h-12.902V54c.886.182 1.883.273 2.991.273 2.346 0 4.346-.773 6.001-2.318.339-.338.58-.604.723-.799.3-.364.606-.545.919-.545Zm-5.219-14.63c-.847-.246-1.805-.37-2.874-.37-1.068 0-1.915.072-2.541.215v8.396h5.415v-8.24ZM246.698 27.78h8.406v14.863l8.229-5.941c.782-.585 1.408-1.15 1.877-1.695.469-.546.866-.819 1.192-.819.587 0 .88.24.88.721 0 .364-.222.728-.665 1.091l-4.984 3.838 7.193 15.506h-8.738l-4.984-10.987v10.987h-8.406V27.78ZM284.66 54.059c-1.668 1.104-3.518 1.656-5.551 1.656-2.698 0-4.861-.676-6.49-2.027-1.694-1.39-2.541-3.318-2.541-5.785 0-2.182.84-3.974 2.522-5.377 1.72-1.415 3.981-2.123 6.783-2.123 1.876 0 3.635.357 5.277 1.071v-5.357c-1.185-.337-2.234-.506-3.147-.506-.899 0-1.661.039-2.287.117-.625.077-1.218.194-1.779.35-1.212.338-2.13.792-2.756 1.364-.365.337-.697.506-.997.506-.299 0-.528-.071-.684-.214-.156-.156-.234-.325-.234-.507 0-.181.032-.344.097-.486.065-.156.189-.312.372-.468.391-.338 1.042-.675 1.954-1.013 1.89-.714 3.786-1.072 5.689-1.072 5.786 0 9.48 1.377 11.083 4.13.704 1.221 1.056 2.825 1.056 4.812v12.214h-8.367V54.06Zm0-11.065c-1.642-.792-3.277-1.189-4.906-1.189-.261 0-.508.02-.743.059v12.39a1.1 1.1 0 0 0 .215.019h.235c1.785 0 3.518-.63 5.199-1.89v-9.39Z"/></svg>